<?xml version="1.0" standalone="no"?>
<!DOCTYPE svg PUBLIC "-//W3C//DTD SVG 20010904//EN"
 "http://www.w3.org/TR/2001/REC-SVG-20010904/DTD/svg10.dtd">
<svg version="1.0" xmlns="http://www.w3.org/2000/svg"
 width="233.000000pt" height="148.000000pt" viewBox="0 0 233.000000 148.000000"
 preserveAspectRatio="xMidYMid meet">

<g transform="translate(0.000000,148.000000) scale(0.100000,-0.100000)"
fill="#000000" stroke="none">
<path d="M755 1225 c-9 -82 2 -664 14 -715 7 -27 10 -6 12 85 4 176 -2 560
-10 635 l-7 65 -9 -70z"/>
<path d="M1197 1206 c-15 -170 -4 -787 14 -726 9 33 10 702 0 760 -7 44 -7 43
-14 -34z"/>
<path d="M1571 1110 c-1 -189 16 -533 29 -590 12 -54 12 261 -1 489 -16 276
-27 315 -28 101z"/>
<path d="M794 1220 c56 -264 137 -459 257 -620 52 -69 143 -165 108 -114 -7
12 -43 64 -78 115 -86 127 -170 304 -227 479 -44 133 -73 203 -60 140z"/>
<path d="M1615 1175 c16 -161 82 -351 176 -511 73 -123 88 -122 27 1 -80 160
-126 281 -164 434 -19 74 -37 137 -40 140 -4 3 -3 -25 1 -64z"/>
<path d="M1231 1205 c-1 -32 35 -171 72 -280 61 -179 146 -333 223 -405 40
-38 38 -29 -11 40 -79 111 -143 253 -231 510 -29 85 -53 146 -53 135z"/>
<path d="M661 1144 c-65 -99 -128 -229 -161 -331 -32 -101 -52 -233 -41 -284
5 -26 10 -10 24 78 23 146 62 258 153 441 42 84 75 155 72 157 -2 3 -23 -25
-47 -61z"/>
<path d="M1101 1170 c-66 -53 -115 -120 -141 -194 -34 -101 -22 -106 25 -10
32 63 66 113 116 167 39 42 66 77 61 77 -6 0 -33 -18 -61 -40z"/>
<path d="M1489 1163 c-25 -27 -54 -64 -66 -83 -30 -51 -55 -134 -51 -172 3
-32 4 -31 22 22 27 78 62 145 113 218 52 74 43 81 -18 15z"/>
<path d="M1835 913 c22 -173 28 -216 41 -275 21 -91 38 -101 29 -17 -8 81 -33
231 -47 287 -13 52 -30 56 -23 5z"/>
<path d="M1880 868 c0 -23 59 -139 91 -179 32 -40 111 -93 129 -87 6 2 -7 17
-30 34 -50 39 -90 89 -141 177 -40 67 -49 77 -49 55z"/>
<path d="M1960 519 c-471 -103 -993 -122 -1560 -59 -187 21 -206 22 -199 16 2
-3 58 -14 124 -25 426 -72 951 -76 1357 -10 137 22 373 77 443 103 60 22 27
17 -165 -25z"/>
<path d="M1861 412 c-20 -21 -44 -62 -55 -91 l-19 -53 -376 9 c-207 4 -544 8
-748 7 l-373 0 0 28 c0 33 -23 92 -39 102 -6 4 -2 -13 9 -36 11 -24 20 -57 20
-74 l0 -31 543 -6 c298 -4 640 -10 760 -14 183 -5 217 -4 217 8 0 26 59 139
86 164 15 14 23 25 19 25 -4 0 -24 -17 -44 -38z"/>
</g>
</svg>
